<svg width="186" height="35" viewBox="0 0 186 35" fill="none" xmlns="http://www.w3.org/2000/svg">
<path d="M28.008 34H22.536L6.072 9.088V34H0.6V0.591998H6.072L22.536 25.456V0.591998H28.008V34ZM59.4338 20.128C59.4338 21.12 59.3698 22.016 59.2418 22.816H39.0338C39.1938 24.928 39.9778 26.624 41.3858 27.904C42.7938 29.184 44.5218 29.824 46.5698 29.824C49.5138 29.824 51.5938 28.592 52.8098 26.128H58.7137C57.9138 28.56 56.4578 30.56 54.3458 32.128C52.2658 33.664 49.6738 34.432 46.5698 34.432C44.0418 34.432 41.7698 33.872 39.7538 32.752C37.7698 31.6 36.2018 30 35.0498 27.952C33.9298 25.872 33.3698 23.472 33.3698 20.752C33.3698 18.032 33.9138 15.648 35.0018 13.6C36.1218 11.52 37.6738 9.92 39.6578 8.8C41.6738 7.68 43.9778 7.12 46.5698 7.12C49.0658 7.12 51.2898 7.664 53.2418 8.752C55.1938 9.84 56.7138 11.376 57.8018 13.36C58.8898 15.312 59.4338 17.568 59.4338 20.128ZM53.7218 18.4C53.6898 16.384 52.9698 14.768 51.5618 13.552C50.1538 12.336 48.4098 11.728 46.3298 11.728C44.4418 11.728 42.8258 12.336 41.4818 13.552C40.1378 14.736 39.3378 16.352 39.0818 18.4H53.7218ZM100.339 7.552L92.1308 34H86.3708L81.0428 14.464L75.7148 34H69.9548L61.6988 7.552H67.2668L72.7868 28.816L78.4028 7.552H84.1148L89.4908 28.72L94.9628 7.552H100.339ZM114.028 34.432C111.948 34.432 110.076 34.064 108.412 33.328C106.78 32.56 105.484 31.536 104.524 30.256C103.564 28.944 103.052 27.488 102.988 25.888H108.652C108.748 27.008 109.276 27.952 110.236 28.72C111.228 29.456 112.46 29.824 113.932 29.824C115.468 29.824 116.652 29.536 117.484 28.96C118.348 28.352 118.78 27.584 118.78 26.656C118.78 25.664 118.3 24.928 117.34 24.448C116.412 23.968 114.924 23.44 112.876 22.864C110.892 22.32 109.276 21.792 108.028 21.28C106.78 20.768 105.692 19.984 104.764 18.928C103.868 17.872 103.42 16.48 103.42 14.752C103.42 13.344 103.836 12.064 104.668 10.912C105.5 9.728 106.684 8.8 108.22 8.128C109.788 7.456 111.58 7.12 113.596 7.12C116.604 7.12 119.02 7.888 120.844 9.424C122.7 10.928 123.692 12.992 123.82 15.616H118.348C118.252 14.432 117.772 13.488 116.908 12.784C116.044 12.08 114.876 11.728 113.404 11.728C111.964 11.728 110.86 12 110.092 12.544C109.324 13.088 108.94 13.808 108.94 14.704C108.94 15.408 109.196 16 109.708 16.48C110.22 16.96 110.844 17.344 111.58 17.632C112.316 17.888 113.404 18.224 114.844 18.64C116.764 19.152 118.332 19.68 119.548 20.224C120.796 20.736 121.868 21.504 122.764 22.528C123.66 23.552 124.124 24.912 124.156 26.608C124.156 28.112 123.74 29.456 122.908 30.64C122.076 31.824 120.892 32.752 119.356 33.424C117.852 34.096 116.076 34.432 114.028 34.432Z" fill="black"/>
<path d="M145.381 17.344L155.749 34H149.605L142.069 21.904L135.013 34H128.917L139.285 17.344L128.869 0.639997H135.013L142.597 12.832L149.701 0.639997H155.797L145.381 17.344ZM185.084 10.576C185.084 12.272 184.684 13.872 183.884 15.376C183.084 16.88 181.804 18.112 180.044 19.072C178.284 20 176.028 20.464 173.276 20.464H167.228V34H161.756V0.639997H173.276C175.836 0.639997 177.996 1.088 179.756 1.984C181.548 2.848 182.876 4.032 183.74 5.536C184.636 7.04 185.084 8.72 185.084 10.576ZM173.276 16C175.356 16 176.908 15.536 177.932 14.608C178.956 13.648 179.468 12.304 179.468 10.576C179.468 6.928 177.404 5.104 173.276 5.104H167.228V16H173.276Z" fill="#EF929C"/>
</svg>
